<svg id="visual" viewBox="0 0 1980 1080" width="1980" height="1080" xmlns="http://www.w3.org/2000/svg" xmlns:xlink="http://www.w3.org/1999/xlink" version="1.1"><rect x="0" y="0" width="1980" height="1080" fill="#253b4c"></rect><path d="M0 746L47.2 728.7C94.3 711.3 188.7 676.7 283 667.2C377.3 657.7 471.7 673.3 566 696C660.3 718.7 754.7 748.3 848.8 757.2C943 766 1037 754 1131.2 744.2C1225.3 734.3 1319.7 726.7 1414 721.2C1508.3 715.7 1602.7 712.3 1697 724C1791.3 735.7 1885.7 762.3 1932.8 775.7L1980 789L1980 1081L1932.8 1081C1885.7 1081 1791.3 1081 1697 1081C1602.7 1081 1508.3 1081 1414 1081C1319.7 1081 1225.3 1081 1131.2 1081C1037 1081 943 1081 848.8 1081C754.7 1081 660.3 1081 566 1081C471.7 1081 377.3 1081 283 1081C188.7 1081 94.3 1081 47.2 1081L0 1081Z" fill="#b7b6b6"></path><path d="M0 823L47.2 812.3C94.3 801.7 188.7 780.3 283 763C377.3 745.7 471.7 732.3 566 724.5C660.3 716.7 754.7 714.3 848.8 732C943 749.7 1037 787.3 1131.2 800.8C1225.3 814.3 1319.7 803.7 1414 793.2C1508.3 782.7 1602.7 772.3 1697 766.7C1791.3 761 1885.7 760 1932.8 759.5L1980 759L1980 1081L1932.8 1081C1885.7 1081 1791.3 1081 1697 1081C1602.7 1081 1508.3 1081 1414 1081C1319.7 1081 1225.3 1081 1131.2 1081C1037 1081 943 1081 848.8 1081C754.7 1081 660.3 1081 566 1081C471.7 1081 377.3 1081 283 1081C188.7 1081 94.3 1081 47.2 1081L0 1081Z" fill="#a2a0a0"></path><path d="M0 891L47.2 894.7C94.3 898.3 188.7 905.7 283 904.5C377.3 903.3 471.7 893.7 566 890.5C660.3 887.3 754.7 890.7 848.8 886C943 881.3 1037 868.7 1131.2 862.8C1225.3 857 1319.7 858 1414 858.3C1508.3 858.7 1602.7 858.3 1697 865.3C1791.3 872.3 1885.7 886.7 1932.8 893.8L1980 901L1980 1081L1932.8 1081C1885.7 1081 1791.3 1081 1697 1081C1602.7 1081 1508.3 1081 1414 1081C1319.7 1081 1225.3 1081 1131.2 1081C1037 1081 943 1081 848.8 1081C754.7 1081 660.3 1081 566 1081C471.7 1081 377.3 1081 283 1081C188.7 1081 94.3 1081 47.2 1081L0 1081Z" fill="#8d8a8b"></path><path d="M0 900L47.2 907.3C94.3 914.7 188.7 929.3 283 925.3C377.3 921.3 471.7 898.7 566 892.5C660.3 886.3 754.7 896.7 848.8 896.2C943 895.7 1037 884.3 1131.2 881.3C1225.3 878.3 1319.7 883.7 1414 898.5C1508.3 913.3 1602.7 937.7 1697 939.3C1791.3 941 1885.7 920 1932.8 909.5L1980 899L1980 1081L1932.8 1081C1885.7 1081 1791.3 1081 1697 1081C1602.7 1081 1508.3 1081 1414 1081C1319.7 1081 1225.3 1081 1131.2 1081C1037 1081 943 1081 848.8 1081C754.7 1081 660.3 1081 566 1081C471.7 1081 377.3 1081 283 1081C188.7 1081 94.3 1081 47.2 1081L0 1081Z" fill="#797577"></path><path d="M0 958L47.2 961.8C94.3 965.7 188.7 973.3 283 984.3C377.3 995.3 471.7 1009.7 566 1010.5C660.3 1011.3 754.7 998.7 848.8 987C943 975.3 1037 964.7 1131.2 964.5C1225.3 964.3 1319.7 974.7 1414 985.2C1508.3 995.7 1602.7 1006.3 1697 1012.8C1791.3 1019.3 1885.7 1021.7 1932.8 1022.8L1980 1024L1980 1081L1932.8 1081C1885.7 1081 1791.3 1081 1697 1081C1602.7 1081 1508.3 1081 1414 1081C1319.7 1081 1225.3 1081 1131.2 1081C1037 1081 943 1081 848.8 1081C754.7 1081 660.3 1081 566 1081C471.7 1081 377.3 1081 283 1081C188.7 1081 94.3 1081 47.2 1081L0 1081Z" fill="#656163"></path></svg>